HIERARCHY
ROOT Hips
{
	OFFSET -0.001795 -0.223333 0.028219
	CHANNELS 6 Xposition Yposition Zposition Zrotation Yrotation Xrotation 
	JOINT LeftUpLeg
	{
		OFFSET 0.069520 -0.091406 -0.006815
		CHANNELS 3 Zrotation Yrotation Xrotation
		JOINT LeftLeg
		{
			OFFSET 0.034277 -0.375199 -0.004496
			CHANNELS 3 Zrotation Yrotation Xrotation
			JOINT LeftFoot
			{
				OFFSET -0.013596 -0.397961 -0.043693
				CHANNELS 3 Zrotation Yrotation Xrotation
				JOINT LeftToe
				{
					OFFSET 0.026358 -0.055791 0.119288
					CHANNELS 3 Zrotation Yrotation Xrotation
					End Site
					{
						OFFSET 0.000000 0.000000 0.000000
					}
				}
			}
		}
	}
	JOINT RightUpLeg
	{
		OFFSET -0.067670 -0.090522 -0.004320
		CHANNELS 3 Zrotation Yrotation Xrotation
		JOINT RightLeg
		{
			OFFSET -0.038290 -0.382569 -0.008850
			CHANNELS 3 Zrotation Yrotation Xrotation
			JOINT RightFoot
			{
				OFFSET 0.015774 -0.398415 -0.042312
				CHANNELS 3 Zrotation Yrotation Xrotation
				JOINT RightToe
				{
					OFFSET -0.025372 -0.048144 0.123348
					CHANNELS 3 Zrotation Yrotation Xrotation
					End Site
					{
						OFFSET 0.000000 0.000000 0.000000
					}
				}
			}
		}
	}
	JOINT Spine
	{
		OFFSET -0.002533 0.108963 -0.026696
		CHANNELS 3 Zrotation Yrotation Xrotation
		JOINT Spine1
		{
			OFFSET 0.005487 0.135180 0.001092
			CHANNELS 3 Zrotation Yrotation Xrotation
			JOINT Spine2
			{
				OFFSET 0.001457 0.052922 0.025425
				CHANNELS 3 Zrotation Yrotation Xrotation
				JOINT Neck
				{
					OFFSET -0.002778 0.213870 -0.042857
					CHANNELS 3 Zrotation Yrotation Xrotation
					JOINT Head
					{
						OFFSET 0.005152 0.064970 0.051349
						CHANNELS 3 Zrotation Yrotation Xrotation
						End Site
						{
							OFFSET 0.000000 0.000000 0.000000
						}
					}
				}
				JOINT LeftShoulder
				{
					OFFSET 0.078845 0.121749 -0.034090
					CHANNELS 3 Zrotation Yrotation Xrotation
					JOINT LeftArm
					{
						OFFSET 0.090977 0.030469 -0.008868
						CHANNELS 3 Zrotation Yrotation Xrotation
						JOINT LeftForeArm
						{
							OFFSET 0.259612 -0.012772 -0.027456
							CHANNELS 3 Zrotation Yrotation Xrotation
							JOINT LeftHand
							{
								OFFSET 0.249234 0.008986 -0.001171
								CHANNELS 3 Zrotation Yrotation Xrotation
								End Site
								{
									OFFSET 0.000000 0.000000 0.000000
								}
							}
						}
					}
				}
				JOINT RightShoulder
				{
					OFFSET -0.081759 0.118833 -0.038615
					CHANNELS 3 Zrotation Yrotation Xrotation
					JOINT RightArm
					{
						OFFSET -0.096012 0.032551 -0.009143
						CHANNELS 3 Zrotation Yrotation Xrotation
						JOINT RightForeArm
						{
							OFFSET -0.253742 -0.013329 -0.021401
							CHANNELS 3 Zrotation Yrotation Xrotation
							JOINT RightHand
							{
								OFFSET -0.255298 0.007772 -0.005559
								CHANNELS 3 Zrotation Yrotation Xrotation
								End Site
								{
									OFFSET 0.000000 0.000000 0.000000
								}
							}
						}
					}
				}
			}
		}
	}
}
MOTION
Frames: 11
Frame Time: 0.050000
0.000000 0.216458 0.000000 -3.792790 -5.910836 -37.211630 41.325130 21.575434 -62.788494 -9.858936 47.826156 158.835020 9.830922 41.874147 -33.229627 0.000000 0.000000 0.000000 -32.621859 -11.808668 -68.114089 7.868542 -37.089194 161.962314 -5.816178 -15.868015 -25.770495 0.000000 0.000000 0.000000 -2.213528 -0.050096 78.145245 -6.034088 3.125314 -7.653277 -3.889135 7.479568 7.423181 9.534893 -11.499839 8.128149 0.000000 0.000000 0.000000 12.694980 -43.886008 8.074649 -12.297844 -20.275305 0.177495 13.252184 -53.365020 -6.684711 0.000000 0.000000 0.000000 1.149509 29.371666 8.225567 11.742664 12.909192 -0.354039 -20.241777 57.980374 -9.000486 0.000000 0.000000 0.000000 
-0.001415 0.219438 -0.000926 -2.630782 -8.022907 -38.194486 41.834335 22.931282 -61.298005 -8.343358 31.263594 159.618791 7.699902 24.278684 -32.218727 0.000000 0.000000 0.000000 -29.680954 -8.818014 -70.309435 7.607215 -41.798339 162.844640 -7.475374 -24.270724 -19.004960 0.000000 0.000000 0.000000 -2.884789 1.751550 80.435779 -8.049202 3.958290 -9.336170 -3.167959 7.785834 5.112893 8.068117 -13.489404 18.330693 0.000000 0.000000 0.000000 12.005099 -46.200934 8.543199 -8.986350 -19.038180 0.064622 4.122111 -55.491120 -2.182157 0.000000 0.000000 0.000000 6.685572 30.303142 9.989486 7.708780 10.525017 -0.481605 -14.208515 60.669979 -6.518814 0.000000 0.000000 0.000000 
-0.002227 0.218075 -0.001565 -1.926387 -6.713195 -40.221922 39.255694 21.359163 -63.240829 -8.160088 29.482679 159.356716 7.815281 26.083761 -35.925204 0.000000 0.000000 0.000000 -31.228981 -10.448683 -70.768708 7.851159 -39.373499 162.231553 -6.795043 -21.021313 -19.316698 0.000000 0.000000 0.000000 -3.685417 1.903165 81.104271 -2.192619 1.187635 -5.309433 -8.791445 9.966180 2.938823 8.768563 -16.900394 21.690082 0.000000 0.000000 0.000000 13.092663 -46.787878 8.893061 -8.168181 -15.978623 -0.044684 2.835435 -56.629129 -2.678389 0.000000 0.000000 0.000000 3.814766 31.437408 10.020478 8.208746 12.578901 -0.432870 -17.113198 57.753900 -6.706116 0.000000 0.000000 0.000000 
-0.002408 0.214736 -0.002789 -0.508755 -7.939083 -41.898106 38.724707 21.707497 -61.899826 -7.735083 27.541768 160.281119 8.056442 28.051794 -33.997685 0.000000 0.000000 0.000000 -30.036721 -8.753331 -71.789524 9.179191 -47.067899 160.239698 -8.138760 -28.848060 -21.821073 0.000000 0.000000 0.000000 -2.783047 2.243607 81.708359 -3.400950 1.842598 -3.942872 -8.519841 7.707029 2.219265 8.207652 -15.039597 21.086081 0.000000 0.000000 0.000000 17.319051 -45.875929 7.518938 -9.368444 -16.519732 -0.056104 7.509536 -56.292138 -4.662913 0.000000 0.000000 0.000000 -1.175737 31.846632 8.401736 9.889199 14.370912 -0.154899 -18.390295 55.879290 -7.178471 0.000000 0.000000 0.000000 
-0.002450 0.213891 -0.003877 -0.522408 -8.602340 -42.557632 37.506460 20.954339 -60.696154 -8.232868 29.811712 158.986106 8.515423 33.109359 -34.774877 0.000000 0.000000 0.000000 -29.137495 -7.783489 -71.815375 10.877063 -48.042932 157.025928 -8.425567 -31.813129 -24.107033 0.000000 0.000000 0.000000 -3.317755 3.006195 81.867859 -2.470878 1.329098 -3.661852 -8.554372 9.320596 2.313529 8.006502 -15.324952 21.332595 0.000000 0.000000 0.000000 19.280021 -47.125331 7.146648 -9.451454 -15.746242 -0.118664 9.811972 -55.739409 -6.166333 0.000000 0.000000 0.000000 -2.311001 33.705910 8.785496 8.994304 14.303140 -0.197096 -21.566851 52.087910 -7.798885 0.000000 0.000000 0.000000 
-0.002254 0.211729 -0.004586 -0.458433 -9.533734 -42.935482 37.459056 21.351142 -60.264291 -8.072828 29.904140 159.683753 8.680415 36.288018 -35.105316 0.000000 0.000000 0.000000 -29.123069 -7.361164 -73.160251 10.514055 -49.604960 158.005901 -8.603538 -32.882410 -24.389405 0.000000 0.000000 0.000000 -2.673314 3.065794 83.268795 -3.182788 1.739282 -3.137887 -7.802978 8.639002 0.927271 7.640114 -14.851521 21.949687 0.000000 0.000000 0.000000 19.290426 -47.178700 7.180179 -9.026739 -16.397329 -0.118074 10.472411 -54.769662 -6.136434 0.000000 0.000000 0.000000 -1.940674 33.840402 9.021835 6.600986 15.472880 -0.150157 -22.505501 51.736530 -8.486173 0.000000 0.000000 0.000000 
-0.002071 0.210989 -0.005062 -0.553187 -9.547513 -43.673541 36.949426 20.988819 -60.145587 -8.143480 30.264673 159.535170 8.566544 37.189358 -36.053036 0.000000 0.000000 0.000000 -29.491120 -7.610611 -73.026432 11.768851 -52.238114 156.251361 -9.106790 -35.880801 -24.125381 0.000000 0.000000 0.000000 -2.079380 2.627109 83.715617 -3.239923 1.780025 -3.285182 -7.618042 8.075061 1.526479 7.803770 -14.916539 21.827421 0.000000 0.000000 0.000000 19.446808 -47.753439 6.997028 -8.739826 -16.193185 -0.138545 13.231165 -52.768988 -7.062542 0.000000 0.000000 0.000000 -1.757252 34.811318 9.260486 4.858800 16.055407 -0.164561 -23.939814 50.674291 -9.145869 0.000000 0.000000 0.000000 
-0.002033 0.208995 -0.005652 -0.751998 -9.806458 -44.178862 37.149893 21.324674 -60.489755 -7.803482 28.485670 160.370066 8.300043 35.800503 -36.321398 0.000000 0.000000 0.000000 -29.568978 -7.612727 -73.600449 11.309453 -51.767471 157.015227 -8.915819 -34.734941 -23.958040 0.000000 0.000000 0.000000 -2.115465 2.760547 84.288705 -3.281414 1.831543 -2.373249 -7.122617 8.183433 1.032841 7.810996 -15.348568 22.719380 0.000000 0.000000 0.000000 19.757170 -47.989908 6.940502 -7.680917 -16.688219 -0.149597 15.451552 -49.976600 -7.628046 0.000000 0.000000 0.000000 -1.439453 35.451704 9.627105 2.830395 16.539729 -0.224224 -24.873803 48.937776 -9.266583 0.000000 0.000000 0.000000 
-0.002175 0.206776 -0.006406 -0.675022 -9.919453 -44.679147 37.424412 21.666248 -60.770784 -7.861551 28.157964 160.281266 8.097562 35.011830 -37.120188 0.000000 0.000000 0.000000 -29.675146 -7.623481 -73.878151 12.106563 -53.887442 156.003598 -9.296234 -36.925479 -24.005026 0.000000 0.000000 0.000000 -2.022366 2.767144 84.604628 -3.313583 1.845537 -2.654005 -6.921953 8.280555 1.892819 7.962381 -15.394196 22.197403 0.000000 0.000000 0.000000 20.108144 -48.367943 6.730189 -6.889290 -17.186199 -0.193764 16.998482 -47.522158 -7.829067 0.000000 0.000000 0.000000 -2.203574 36.190938 9.476217 1.731487 17.122186 -0.243216 -24.953881 46.879396 -8.872144 0.000000 0.000000 0.000000 
-0.002364 0.204925 -0.007364 -0.859416 -10.043066 -45.091779 37.410910 21.827572 -61.264335 -7.754636 25.817856 160.178790 7.875199 33.079346 -37.961487 0.000000 0.000000 0.000000 -29.358311 -7.400416 -74.066009 13.727365 -57.153741 153.926019 -10.005866 -40.825634 -23.947568 0.000000 0.000000 0.000000 -2.226294 2.959076 84.944125 -3.558107 1.990233 -2.485621 -5.963106 8.353570 2.015440 7.717133 -15.341336 22.820183 0.000000 0.000000 0.000000 19.665360 -48.828335 6.811052 -6.300548 -17.156200 -0.203097 17.229822 -46.109276 -7.553183 0.000000 0.000000 0.000000 -2.243822 37.240318 9.800173 0.005782 17.042609 -0.311195 -24.168552 45.311797 -8.278888 0.000000 0.000000 0.000000 
-0.002481 0.204109 -0.008403 -1.175634 -10.042420 -45.302157 37.498227 21.907332 -61.635886 -7.545509 23.586406 160.452245 7.718527 30.827354 -38.304933 0.000000 0.000000 0.000000 -29.502089 -7.552429 -73.643427 14.346563 -57.717700 153.075030 -9.732259 -40.419825 -24.694851 0.000000 0.000000 0.000000 -2.310312 2.956530 85.403590 -3.590545 2.013412 -2.525931 -5.671761 8.559987 2.062678 7.468001 -15.512675 23.754761 0.000000 0.000000 0.000000 19.450770 -49.424877 6.905892 -6.017796 -16.951668 -0.220610 17.010668 -44.505141 -7.102208 0.000000 0.000000 0.000000 -1.994118 37.944381 10.106023 -1.015042 16.834998 -0.350585 -23.665759 44.640369 -7.959109 0.000000 0.000000 0.000000 
